PathFileType	4	(X/Y/Z)	s03c0001.trc
DataRate	CameraRate	NumFrames	NumMarkers	Units	OrigDataRate	OrigDataStartFrame	OrigNumFrames
200	200	7	49	mm	200	750	2000
Frame#	Time	racr			lacr			c7			jug			rlel			rdr			llel			ldr			s2			lic			ric			lasi			rasi			rpsi			lpsi			rgt			lgt			rth1			rth2			rth3			rth4			rlfc			rmfc			rsh1			rsh2			rsh3			rsh4			rlmal			rmmal			rcal			rtoe			rmt5			rmt1			lth1			lth2			lth4			lth3			llfc			lmfc			lsh1			lsh2			lsh3			lsh4			llmal			lmmal			lcal			ltoe			lmt1			lmt5			
		X1	Y1	Z1	X2	Y2	Z2	X3	Y3	Z3	X4	Y4	Z4	X5	Y5	Z5	X6	Y6	Z6	X7	Y7	Z7	X8	Y8	Z8	X9	Y9	Z9	X10	Y10	Z10	X11	Y11	Z11	X12	Y12	Z12	X13	Y13	Z13	X14	Y14	Z14	X15	Y15	Z15	X16	Y16	Z16	X17	Y17	Z17	X18	Y18	Z18	X19	Y19	Z19	X20	Y20	Z20	X21	Y21	Z21	X22	Y22	Z22	X23	Y23	Z23	X24	Y24	Z24	X25	Y25	Z25	X26	Y26	Z26	X27	Y27	Z27	X28	Y28	Z28	X29	Y29	Z29	X30	Y30	Z30	X31	Y31	Z31	X32	Y32	Z32	X33	Y33	Z33	X34	Y34	Z34	X35	Y35	Z35	X36	Y36	Z36	X37	Y37	Z37	X38	Y38	Z38	X39	Y39	Z39	X40	Y40	Z40	X41	Y41	Z41	X42	Y42	Z42	X43	Y43	Z43	X44	Y44	Z44	X45	Y45	Z45	X46	Y46	Z46	X47	Y47	Z47	X48	Y48	Z48	X49	Y49	Z49	
750	3.7500	260.813354	1572.364258	583.440125	255.982452	1588.218140	202.458817	194.496521	1608.067261	395.949585	360.977112	1555.849731	394.389221	184.259506	1301.043579	692.040344	276.782501	1121.343018	888.274658	181.691849	1316.803223	97.693405	263.037720	1125.861450	-107.590172	158.455200	1067.208984	374.984711	293.902069	1165.336304	195.626236	286.441071	1151.410034	567.544678	356.284363	1103.971924	238.337173	356.658813	1100.459229	521.139832	159.617706	1107.834351	424.817078	163.794800	1116.206299	341.839417	268.037598	1008.943848	562.260986	282.557953	1015.675537	187.776123	281.449829	870.399109	577.387634	312.188904	786.907898	571.479614	302.122437	703.745422	556.764282	348.287994	792.367676	566.895203	296.386414	577.583923	524.871826	327.867676	557.062134	418.489502	242.247604	412.775330	552.657166	253.605392	323.731781	548.197449	218.400513	243.301788	542.468323	287.756683	320.428223	530.750000	208.800903	104.100105	531.113953	248.835159	121.950691	450.212341	165.204376	56.097404	483.444550	468.489471	91.082314	503.524780	353.428101	43.285027	563.520447	378.681793	81.220871	454.195312	293.930328	865.786560	174.804901	317.650208	782.822998	182.360016	353.667084	785.011719	184.479538	296.576752	698.066650	195.941025	311.022278	576.924377	221.235977	332.649323	558.968079	334.645416	251.968216	413.374634	184.811707	264.419128	329.129700	193.345871	229.385818	244.677185	196.673492	298.638916	325.056763	211.527710	220.608124	110.760521	206.111588	259.149261	124.849648	292.898590	172.494141	55.054176	258.078033	479.396942	92.669106	234.433365	389.076813	73.344467	286.002167	358.308685	50.734470	172.493835	
751	3.7550	260.806152	1572.357056	583.415222	256.017365	1588.224609	202.433044	194.474823	1607.832275	395.952759	360.994751	1555.841309	394.374359	184.249222	1301.078247	692.045593	276.779022	1121.373413	888.286560	181.696671	1316.836914	97.658455	263.054382	1125.894043	-107.636696	158.432663	1067.214478	374.949554	293.903778	1165.361084	195.609100	286.428986	1151.397339	567.508606	356.244965	1103.971680	238.299835	356.641357	1100.459229	521.108215	159.601471	1107.835815	424.783051	163.769180	1116.211060	341.816498	268.028656	1008.949341	562.254517	282.553741	1015.671326	187.753372	281.403290	870.414978	577.370117	312.160156	786.905273	571.451843	302.100372	703.727417	556.749329	348.247681	792.380310	566.890015	296.349426	577.590576	524.859802	327.841919	557.049927	418.462128	242.236374	412.780518	552.645325	253.600204	323.727264	548.178406	218.376144	243.301147	542.466309	287.755585	320.435486	530.750122	208.788223	104.099915	531.119995	248.815659	121.962891	450.199280	165.206467	56.068237	483.449280	468.482635	91.096016	503.550476	353.413544	43.269073	563.499329	378.676849	81.221481	454.202942	293.919678	865.786865	174.791107	317.646515	782.826233	182.348923	353.669189	785.010864	184.460129	296.593109	698.056824	195.932144	311.070007	576.926025	221.250275	332.638184	558.979797	334.637451	251.992828	413.357330	184.806244	264.423920	329.117493	193.342087	229.394394	244.655273	196.668655	298.642151	325.035248	211.524796	220.618271	110.749542	206.123108	259.156769	124.835373	292.897919	172.493790	55.046909	258.074341	479.401581	92.670609	234.447281	389.066620	73.340103	285.994751	358.279846	50.721001	172.480011	
752	3.7600	260.802612	1572.362183	583.377136	256.049042	1588.230957	202.410995	194.476959	1607.836182	395.926392	360.998352	1555.854004	394.362823	184.254761	1301.119507	692.048035	276.781677	1121.405640	888.288330	181.719238	1316.850220	97.612869	263.062347	1125.928711	-107.681633	158.390228	1067.221680	374.930786	293.904510	1165.361450	195.602921	286.399414	1151.413086	567.495850	356.273926	1103.974121	238.309769	356.617859	1100.467896	521.096130	159.595810	1107.846069	424.757721	163.739380	1116.232178	341.789825	268.003235	1008.943115	562.213379	282.539276	1015.676819	187.740997	281.378876	870.409485	577.363281	312.127533	786.904175	571.448547	302.055145	703.731689	556.726685	348.221832	792.375366	566.862671	296.333984	577.589661	524.845886	327.803925	557.057922	418.455383	242.222687	412.771912	552.634277	253.582550	323.737244	548.179932	218.367203	243.297363	542.448120	287.748444	320.420837	530.734192	208.771591	104.090294	531.132202	248.807877	121.957603	450.203918	165.206467	56.068237	483.449280	468.486298	91.105370	503.547394	353.414215	43.259331	563.512024	378.680725	81.243881	454.200897	293.922272	865.794556	174.758194	317.661194	782.828674	182.337646	353.666473	785.005188	184.432495	296.588623	698.070007	195.905533	311.060822	576.919556	221.236923	332.634644	558.976196	334.646881	251.988281	413.337921	184.792038	264.424347	329.106384	193.334412	229.391006	244.677750	196.649124	298.637512	325.024567	211.525131	220.597260	110.773094	206.108566	259.146454	124.842949	292.894775	172.494919	55.031574	258.085449	479.458801	92.700325	234.429947	389.056183	73.330109	285.993561	358.293121	50.746857	172.503204	
753	3.7650	260.799377	1572.367920	583.358215	256.073151	1588.237793	202.388596	194.476959	1607.836182	395.926392	361.001282	1555.849487	394.352966	184.257294	1301.151489	692.046448	276.770599	1121.452637	888.300049	181.721252	1316.862793	97.575470	263.056091	1125.954590	-107.746101	158.366592	1067.211426	374.896210	293.907227	1165.366333	195.591385	286.369141	1151.419922	567.469849	356.242493	1103.992432	238.297699	356.593933	1100.470093	521.063477	159.710373	1107.894775	424.854126	163.728592	1116.226929	341.762299	267.976959	1008.945740	562.206604	282.540924	1015.673828	187.729996	281.361237	870.406738	577.331116	312.098267	786.910095	571.425720	302.036224	703.742432	556.725525	348.190155	792.389465	566.859192	296.306976	577.587036	524.837402	327.779358	557.069702	418.435333	242.222397	412.785980	552.631653	253.565674	323.734283	548.166748	218.367188	243.297363	542.448120	287.739960	320.408386	530.725769	208.783295	104.090538	531.126343	248.804398	121.965614	450.207397	165.178604	56.084053	483.446381	468.483398	91.097290	503.543488	353.416687	43.260181	563.520752	378.689270	81.227089	454.195465	293.922638	865.787598	174.748093	317.647888	782.810181	182.306335	353.683411	784.991028	184.437958	296.588135	698.056641	195.896927	311.065460	576.929626	221.248810	332.610535	558.961182	334.647888	251.999084	413.347015	184.777435	264.424713	329.114410	193.329178	229.419479	244.651291	196.648407	298.636383	325.022736	211.515686	220.599960	110.752380	206.105942	259.166382	124.844070	292.901672	172.505173	55.020077	258.079376	479.385345	92.662132	234.444275	389.057556	73.329895	285.994476	358.264282	50.733387	172.489395	
754	3.7700	260.811279	1572.399292	583.345581	256.085419	1588.245117	202.361710	194.507904	1608.091797	395.862427	361.030823	1555.854248	394.313354	184.252457	1301.192871	692.065430	276.786255	1121.493652	888.329529	181.727768	1316.875000	97.537613	263.079346	1125.979614	-107.793068	158.335709	1067.232056	374.891876	293.912445	1165.391357	195.566910	286.366913	1151.435791	567.448669	356.228485	1103.979248	238.269363	356.580170	1100.475464	521.045166	159.570526	1107.831665	424.700745	163.703552	1116.234375	341.736786	267.946136	1008.956177	562.191345	282.526825	1015.651184	187.693695	281.307983	870.430176	577.323792	312.079712	786.913025	571.398071	302.006958	703.736328	556.712891	348.159363	792.383850	566.843018	296.301300	577.585449	524.811340	327.758453	557.050598	418.407135	242.185486	412.784760	552.622803	253.546631	323.738403	548.163391	218.357513	243.295609	542.441711	287.719543	320.417297	530.716980	208.779160	104.096375	531.114075	248.837173	121.974915	450.220184	165.189026	56.080620	483.426422	468.452423	91.098526	503.557770	353.450287	43.267982	563.514160	378.677063	81.238182	454.203339	293.934174	865.776672	174.725662	317.647522	782.814758	182.311615	353.690216	784.971802	184.419403	296.588928	698.051575	195.876358	311.097687	576.897400	221.247467	332.590851	558.962219	334.628418	252.008804	413.345032	184.762161	264.432770	329.103333	193.329529	229.388824	244.667648	196.646194	298.658905	325.020874	211.543808	220.596634	110.751137	206.106888	259.162109	124.848541	292.898315	172.493561	55.041607	258.084534	479.396881	92.682999	234.433899	389.048187	73.344719	285.990234	358.295349	50.745136	172.492188	
755	3.7750	260.808350	1572.404907	583.318909	256.081512	1588.253418	202.326233	194.486313	1607.857666	395.865479	361.030823	1555.854248	394.313354	184.252914	1301.218384	692.061035	276.795044	1121.587646	888.376343	181.751175	1316.895142	97.477142	263.079071	1126.001465	-107.833939	158.312622	1067.217407	374.860016	293.909332	1165.404297	195.555984	286.291229	1151.482666	567.447632	356.214691	1103.990479	238.273514	356.555145	1100.484375	521.013489	159.671570	1107.929932	424.762878	163.681824	1116.235596	341.700745	267.930267	1008.958313	562.172424	282.523132	1015.654480	187.693085	281.285645	870.434021	577.304810	312.053833	786.930786	571.386292	301.994232	703.720825	556.710266	348.143066	792.383789	566.828125	296.267242	577.599060	524.811707	327.765991	557.053345	418.441284	242.197525	412.774567	552.614197	253.551544	323.747803	548.164185	218.349014	243.287491	542.454163	287.706207	320.419434	530.719849	208.771942	104.099998	531.123535	248.807388	121.961662	450.200195	165.161163	56.096436	483.423523	468.481476	91.096962	503.550903	353.432190	43.281284	563.501465	378.671295	81.229393	454.199768	293.932495	865.772949	174.704193	317.664948	782.813171	182.298492	353.688507	784.971191	184.418579	296.576324	698.055298	195.861206	311.062622	576.909302	221.197983	332.594025	558.977478	334.630707	252.013794	413.337555	184.747391	264.450317	329.102997	193.330261	229.396439	244.666275	196.629974	298.648285	325.024689	211.509979	220.620819	110.744080	206.092148	259.156586	124.853600	292.886017	172.492126	55.037945	258.083313	479.400574	92.675812	234.439880	389.041992	73.354057	285.992889	358.288177	50.736584	172.516525	
756	3.7800	260.816071	1572.436279	583.310669	256.081970	1588.259155	202.294830	194.514633	1607.848633	395.818390	361.039673	1555.854126	394.298035	184.240875	1301.248047	692.073120	276.794281	1121.624512	888.372009	181.756851	1316.911377	97.441803	263.084534	1126.031738	-107.895103	158.269638	1067.216675	374.841522	293.916962	1165.410034	195.537445	286.276215	1151.460938	567.385986	356.201447	1103.981812	238.261124	356.532013	1100.471558	520.988647	159.654434	1107.923340	424.726746	163.653046	1116.241455	341.677216	267.900269	1008.964233	562.158325	282.531891	1015.660522	187.670349	281.282898	870.414734	577.283447	312.038116	786.925842	571.372925	301.968506	703.740234	556.703064	348.116486	792.382935	566.802063	296.271393	577.592590	524.793091	327.758331	557.056824	418.407806	242.184830	412.771606	552.602539	253.551865	323.725403	548.147949	218.320541	243.291519	542.439819	287.727692	320.426086	530.715210	208.781998	104.095490	531.126709	248.833435	121.955513	450.207703	165.178619	56.084064	483.446411	468.477936	91.108749	503.547394	353.422760	43.260544	563.522095	378.690582	81.238678	454.208221	293.924652	865.762756	174.701080	317.669647	782.826904	182.266846	353.687531	785.000549	184.409958	296.590149	698.047363	195.833923	311.074707	576.910339	221.205078	332.586365	558.972046	334.613159	252.031357	413.327881	184.736649	264.444275	329.101135	193.295074	229.407730	244.656189	196.626801	298.666931	325.031250	211.518402	220.598145	110.737419	206.088196	259.175201	124.856628	292.890198	172.486526	55.041561	258.075439	479.390198	92.689499	234.439819	389.066895	73.355652	285.989807	358.286133	50.742352	172.480255	
